<svg width="120" height="200" viewBox="0 0 120 200" fill="none" xmlns="http://www.w3.org/2000/svg">
<mask id="mask0_253_856" style="mask-type:alpha" maskUnits="userSpaceOnUse" x="0" y="0" width="120" height="200">
<path d="M0 16.9811C0 7.60272 8.05888 0 18 0L102 0C111.941 0 120 7.60271 120 16.9811V183.019C120 192.397 111.941 200 102 200H18C8.05887 200 0 192.397 0 183.019L0 16.9811Z" fill="black"/>
</mask>
<g mask="url(#mask0_253_856)">
<rect width="286.71" height="147.151" transform="matrix(0.771438 -0.636305 0.679744 0.733449 -127 95.6426)" fill="url(#paint0_linear_253_856)"/>
<rect width="286.71" height="147.151" transform="matrix(0.771438 -0.636304 0.679744 0.733449 -48.2039 220.952)" fill="url(#paint1_linear_253_856)"/>
<path fill-rule="evenodd" clip-rule="evenodd" d="M102 4.71698L18 4.71698C10.8203 4.71698 5 10.2078 5 16.9811L5 183.019C5 189.792 10.8203 195.283 18 195.283H102C109.18 195.283 115 189.792 115 183.019V16.9811C115 10.2078 109.18 4.71698 102 4.71698ZM18 0C8.05888 0 0 7.60272 0 16.9811L0 183.019C0 192.397 8.05887 200 18 200H102C111.941 200 120 192.397 120 183.019V16.9811C120 7.60271 111.941 0 102 0L18 0Z" fill="white" fill-opacity="0.5"/>
<rect width="31.6299" height="31.6299" rx="3" transform="matrix(0.709569 0.704636 -0.709569 0.704636 60.4436 79.5923)" fill="#FCFCFC" fill-opacity="0.3"/>
<path d="M50.4289 106.405H56.7487V88.0132H61.6617V83.2848H56.6188V81.5009C56.6188 79.4377 57.5278 78.2985 59.9735 78.2985C60.796 78.2985 61.4669 78.363 61.8565 78.4275V74.2364C60.9475 74.1075 59.8869 74 58.61 74C52.8529 74 50.4289 76.3642 50.4289 81.0711V83.2848H46.5764V88.0132H50.4289V106.405Z" fill="white"/>
<path d="M66.3089 125.411C67.5209 125.411 68.6896 125.282 69.4688 125.131V120.467C68.8627 120.532 68.4299 120.575 67.6074 120.575C65.4648 120.575 64.5558 119.629 64.5558 117.501V106.39H69.4688V101.661H64.5558V96.0085H58.171V101.661H54.4917V106.39H58.171V118.941C58.171 123.541 60.5085 125.411 66.3089 125.411Z" fill="white"/>
</g>
<defs>
<linearGradient id="paint0_linear_253_856" x1="40.9202" y1="112.536" x2="267.852" y2="112.5" gradientUnits="userSpaceOnUse">
<stop offset="0.0213376" stop-color="#4BACA6"/>
<stop offset="1" stop-color="#5AD2CB"/>
</linearGradient>
<linearGradient id="paint1_linear_253_856" x1="269.012" y1="37.4928" x2="-25.6592" y2="37.3991" gradientUnits="userSpaceOnUse">
<stop offset="0.0213376" stop-color="#51BCB5"/>
<stop offset="1" stop-color="#5CD7CF"/>
</linearGradient>
</defs>
</svg>
