<svg width="111" height="188" viewBox="0 0 111 188" fill="none" xmlns="http://www.w3.org/2000/svg">
<mask id="mask0_253_856" style="mask-type:alpha" maskUnits="userSpaceOnUse" x="0" y="0" width="111" height="188">
<rect width="111" height="188" fill="#D9D9D9"/>
</mask>
<g mask="url(#mask0_253_856)">
<rect width="266.957" height="137.306" transform="matrix(0.766382 -0.642385 0.673844 0.738873 -117.475 89.9041)" fill="url(#paint0_linear_253_856)"/>
<rect width="266.957" height="137.306" transform="matrix(0.766382 -0.642385 0.673844 0.738873 -44.5886 207.695)" fill="url(#paint1_linear_253_856)"/>
<rect width="29.2107" height="29.2107" transform="matrix(0.701797 0.712377 -0.701797 0.712377 55.5 75.2214)" fill="#FCFCFC" fill-opacity="0.3"/>
<path d="M46.3528 100.256H52.1253V83.0836H56.6129V78.6689H52.0067V77.0033C52.0067 75.0769 52.837 74.0134 55.0709 74.0134C55.8221 74.0134 56.435 74.0736 56.7908 74.1338V70.2207C55.9605 70.1003 54.9918 70 53.8255 70C48.567 70 46.3528 72.2074 46.3528 76.602V78.6689H42.834V83.0836H46.3528V100.256Z" fill="white"/>
<path d="M60.8573 118C61.9643 118 63.0318 117.879 63.7435 117.739V113.384C63.19 113.445 62.7946 113.485 62.0434 113.485C60.0863 113.485 59.256 112.602 59.256 110.615V100.241H63.7435V95.8259H59.256V90.5483H53.4242V95.8259H50.0635V100.241H53.4242V111.96C53.4242 116.254 55.5592 118 60.8573 118Z" fill="white"/>
</g>
<defs>
<linearGradient id="paint0_linear_253_856" x1="38.1009" y1="105.007" x2="249.398" y2="104.974" gradientUnits="userSpaceOnUse">
<stop offset="0.0213376" stop-color="#4BACA6"/>
<stop offset="1" stop-color="#5AD2CB"/>
</linearGradient>
<linearGradient id="paint1_linear_253_856" x1="250.477" y1="34.9845" x2="-23.8913" y2="34.8974" gradientUnits="userSpaceOnUse">
<stop offset="0.0213376" stop-color="#51BCB5"/>
<stop offset="1" stop-color="#5CD7CF"/>
</linearGradient>
</defs>
</svg>
