<svg width="512" height="512" viewBox="0 0 512 512" fill="none" xmlns="http://www.w3.org/2000/svg">
<rect width="259.255" height="259.255" rx="3" transform="matrix(0.708359 0.705853 -0.708359 0.705853 255.645 90.9175)" fill="#4BACA6"/>
<path d="M173.701 311.069H225.413V160.058H265.614V121.235H224.351V106.588C224.351 89.6466 231.789 80.2938 251.8 80.2938C258.53 80.2938 264.02 80.8232 267.208 81.3526V46.9412C259.77 45.8823 251.092 45 240.643 45C193.536 45 173.701 64.4116 173.701 103.058V121.235H142.178V160.058H173.701V311.069Z" fill="white"/>
<path d="M303.639 467.115C313.556 467.115 323.119 466.056 329.495 464.821V426.527C324.536 427.057 320.994 427.409 314.264 427.409C296.732 427.409 289.294 419.645 289.294 402.174V310.94H329.495V272.117H289.294V225.706H237.051V272.117H206.945V310.94H237.051V413.998C237.051 451.762 256.177 467.115 303.639 467.115Z" fill="white"/>
</svg>
