<?xml version="1.0" encoding="utf-8"?>
<svg width="193" height="64" viewBox="0 0 193 64" fill="none" xmlns="http://www.w3.org/2000/svg">
  <path d="M25.7189 9.07898C26.8926 7.90949 28.7954 7.90949 29.9691 9.07898L53.5627 32.5892C54.7364 33.7587 54.7364 35.6548 53.5627 36.8243L29.9691 60.3345C28.7954 61.504 26.8926 61.504 25.7189 60.3345L2.12527 36.8243C0.951621 35.6548 0.951622 33.7587 2.12527 32.5892L25.7189 9.07898Z" fill="#4BACA6"/>
  <path d="M15.4196 40.3407H23.26V17.4447H29.3551V11.5585H23.0989V9.33775C23.0989 6.7692 24.2266 5.35115 27.2607 5.35115C28.2811 5.35115 29.1134 5.43142 29.5968 5.51168V0.294313C28.469 0.133779 27.1533 0 25.5691 0C18.4268 0 15.4196 2.94313 15.4196 8.80264V11.5585H10.6401V17.4447H15.4196V40.3407Z" fill="white"/>
  <path d="M35.1202 64.0003C36.6239 64.0003 38.0738 63.8398 39.0404 63.6525V57.8465C38.2886 57.9267 37.7516 57.9802 36.7313 57.9802C34.073 57.9802 32.9453 56.803 32.9453 54.1542V40.3215H39.0404V34.4352H32.9453V27.3984H25.0243V34.4352H20.4597V40.3215H25.0243V55.9468C25.0243 61.6725 27.9242 64.0003 35.1202 64.0003Z" fill="white"/>
  <path d="M72.0508 42V25.0898H83.125V28.0078H75.5898V32.543H82.4688V35.3438H75.5898V42H72.0508Z" style="fill: rgb(255, 255, 255);"/>
  <path d="M88.0445 42.1992C85.5836 42.1992 83.8375 40.6758 83.8375 38.332V38.3086C83.8375 35.9883 85.6305 34.6289 88.8414 34.4414L91.9586 34.2539V33.1875C91.9586 32.0742 91.1969 31.4414 89.7906 31.4414C88.5601 31.4414 87.775 31.875 87.5055 32.6367L87.482 32.6836H84.318L84.3297 32.5781C84.5992 30.3164 86.732 28.8164 89.9781 28.8164C93.4 28.8164 95.3336 30.4336 95.3336 33.1875V42H91.9586V40.2891H91.7476C91.0914 41.4844 89.732 42.1992 88.0445 42.1992ZM87.1773 38.1211C87.1773 39.1055 88.0094 39.7031 89.193 39.7031C90.775 39.7031 91.9586 38.6602 91.9586 37.3008V36.3516L89.357 36.5156C87.8922 36.6094 87.1773 37.1602 87.1773 38.0977V38.1211Z" style="fill: rgb(255, 255, 255);"/>
  <path d="M105.362 42.1992C103.534 42.1992 102.163 41.3906 101.495 39.9961H101.284V42H97.8625V24.1641H101.284V31.1602H101.495C102.152 29.7539 103.593 28.8867 105.362 28.8867C108.632 28.8867 110.601 31.3828 110.601 35.5312V35.5547C110.601 39.6797 108.585 42.1992 105.362 42.1992ZM104.191 39.3633C106.007 39.3633 107.12 37.9336 107.12 35.5547V35.5312C107.12 33.1758 105.995 31.7227 104.191 31.7227C102.398 31.7227 101.249 33.1758 101.249 35.543V35.5664C101.249 37.9336 102.386 39.3633 104.191 39.3633Z" style="fill: rgb(255, 255, 255);"/>
  <path d="M112.555 42V24.1641H115.977V42H112.555Z" style="fill: rgb(255, 255, 255);"/>
  <path d="M124.248 42.2695C120.323 42.2695 117.944 39.7031 117.944 35.5664V35.5547C117.944 31.4531 120.346 28.8164 124.108 28.8164C127.869 28.8164 130.213 31.3945 130.213 35.2969V36.3633H121.33C121.366 38.4844 122.502 39.7148 124.319 39.7148C125.819 39.7148 126.651 38.918 126.885 38.4258L126.92 38.3555H130.108L130.084 38.4727C129.686 40.0898 128.022 42.2695 124.248 42.2695ZM124.166 31.3828C122.678 31.3828 121.577 32.3906 121.366 34.2188H126.932C126.721 32.3438 125.655 31.3828 124.166 31.3828Z" style="fill: rgb(255, 255, 255);"/>
  <path d="M137.43 42.0469C134.289 42.0469 133.023 41.0273 133.023 38.5195V31.6758H131.031V29.0977H133.023V26.0156H136.48V29.0977H139.141V31.6758H136.48V37.7344C136.48 38.8945 136.973 39.4102 138.133 39.4102C138.578 39.4102 138.812 39.3867 139.141 39.3516V41.8945C138.719 41.9766 138.086 42.0469 137.43 42.0469Z" style="fill: rgb(255, 255, 255);"/>
  <path d="M146.685 42.2695C142.712 42.2695 140.322 39.75 140.322 35.5547V35.5312C140.322 31.3711 142.748 28.8164 146.685 28.8164C150.623 28.8164 153.048 31.3594 153.048 35.5312V35.5547C153.048 39.7617 150.658 42.2695 146.685 42.2695ZM146.685 39.5859C148.502 39.5859 149.544 38.0977 149.544 35.5547V35.5312C149.544 33.0117 148.49 31.5 146.685 31.5C144.869 31.5 143.826 33.0117 143.826 35.5312V35.5547C143.826 38.0977 144.857 39.5859 146.685 39.5859Z" style="fill: rgb(255, 255, 255);"/>
  <path d="M154.898 46.2773V29.0977H158.319V31.0898H158.53C159.198 29.707 160.569 28.8867 162.398 28.8867C165.62 28.8867 167.636 31.418 167.636 35.5312V35.5547C167.636 39.7031 165.667 42.1992 162.398 42.1992C160.628 42.1992 159.187 41.3438 158.53 39.9375H158.319V46.2773H154.898ZM161.226 39.3633C163.03 39.3633 164.155 37.9219 164.155 35.5547V35.5312C164.155 33.1641 163.042 31.7227 161.226 31.7227C159.421 31.7227 158.284 33.1641 158.284 35.5312V35.5547C158.284 37.9219 159.433 39.3633 161.226 39.3633Z" style="fill: rgb(255, 255, 255);"/>
  <path d="M 171.042 27.381 C 169.987 27.381 169.109 26.537 169.109 25.483 C 169.109 24.416 169.987 23.573 171.042 23.573 C 172.097 23.573 172.964 24.416 172.964 25.483 C 172.964 26.537 172.097 27.381 171.042 27.381 Z M 169.32 42.264 L 169.32 29.362 L 172.741 29.362 L 172.741 42.264 L 169.32 42.264 Z" style="fill: rgb(255, 255, 255);"/>
  <path d="M 178.762 42.463 C 176.302 42.463 174.555 40.94 174.555 38.596 L 174.555 38.573 C 174.555 36.252 176.348 34.893 179.559 34.705 L 182.677 34.518 L 182.677 33.451 C 182.677 32.338 181.915 31.705 180.509 31.705 C 179.278 31.705 178.493 32.139 178.223 32.901 L 178.2 32.948 L 175.036 32.948 L 175.048 32.842 C 175.317 30.58 177.45 29.08 180.696 29.08 C 184.118 29.08 186.052 30.698 186.052 33.451 L 186.052 42.264 L 182.677 42.264 L 182.677 40.553 L 182.466 40.553 C 181.809 41.748 180.45 42.463 178.762 42.463 Z M 177.895 38.385 C 177.895 39.369 178.727 39.967 179.911 39.967 C 181.493 39.967 182.677 38.924 182.677 37.565 L 182.677 36.616 L 180.075 36.78 C 178.61 36.873 177.895 37.424 177.895 38.362 L 177.895 38.385 Z" style="fill: rgb(255, 255, 255);"/>
</svg>